<svg xmlns="http://www.w3.org/2000/svg" viewBox="0 0 58.38 54.11"><defs><style>.cls-1{fill:#939598;}.cls-2{fill:#808285;}</style></defs><title>schedule</title><g id="Layer_2" data-name="Layer 2"><g id="Layer_1-2" data-name="Layer 1"><path class="cls-1" d="M47.47,9.24,47.22,7H43l-.35,2H33.89C33,7.81,32.25,6.12,31,5.18A28,28,0,0,0,24.08,1a18.14,18.14,0,0,0-13.84.77,17.79,17.79,0,0,0-7,6.31,16.61,16.61,0,0,0-2.89,13c.61,3,1.21,6.38,4.07,8.39.95.66.84,2.08,2.28,2.47.94.26,1.62,1.49,2.53,2.41V54.11H58.38V9.24ZM13.77,36.17a49,49,0,0,0,7.59-.09,13.89,13.89,0,0,0,6.09-2.3A25.92,25.92,0,0,0,32.62,29c1.51-2,1.82-4.3,3-6.25H53.93V49.64H13.77ZM6.21,12a15.86,15.86,0,0,1,9.38-6.91c4.55-1.32,7.89.52,11.18,2.68,2.6,1.72,4,4.8,4.69,7.73a12.52,12.52,0,0,1-1.26,8.39c-3.13,6.54-10.68,9.32-16.62,7a16,16,0,0,1-4.46-2.73,11.81,11.81,0,0,1-2.89-3.66,22.68,22.68,0,0,1-1.54-5C4.07,16.76,5.88,14.45,6.21,12ZM54,18H36.11a18.71,18.71,0,0,0,0-2.26,16.5,16.5,0,0,0-.48-2h7.07l.38,2h4.17l.21-2H54Z"/><path class="cls-2" d="M22.52,40.75H18.27V45h4.25Z"/><path class="cls-2" d="M31.47,40.68H27.33v4.38h4.14A12.88,12.88,0,0,0,31.47,40.68Z"/><path class="cls-2" d="M36.23,45.13h4.25V40.87H36.23Z"/><path class="cls-2" d="M45.05,45.19h4.33V40.82H45.25C44.89,42.18,45.21,43.69,45.05,45.19Z"/><path class="cls-2" d="M40.54,36.05V31.78H36.3v4.27Z"/><path class="cls-2" d="M45.21,36.11h4.25V31.85H45.21Z"/><path class="cls-2" d="M16,19.59l-4,3.89,2.63,2.79,5.74-5.78V9.31H16Z"/></g></g></svg>